# This file uses centimeters as units for non-parametric coordinates.

v -39.729015 0.000000 39.729015
v -29.134605 0.000000 39.729015
v 29.134605 0.000000 39.729015
v 39.729015 0.000000 39.729015
v -39.729015 10.594409 39.729015
v -29.134605 10.594409 39.729015
v 29.134605 10.594409 39.729015
v 39.729015 10.594409 39.729015
v -39.729015 68.863625 39.729015
v -29.134605 68.863625 39.729015
v 29.134605 68.863625 39.729015
v 39.729015 68.863625 39.729015
v -39.729015 79.458031 39.729015
v -29.134605 79.458031 39.729015
v 29.134605 79.458031 39.729015
v 39.729015 79.458031 39.729015
v -39.729015 79.458031 29.134605
v -29.134605 79.458031 29.134605
v 29.134605 79.458031 29.134605
v 39.729015 79.458031 29.134605
v -39.729015 79.458031 -29.134605
v -29.134605 79.458031 -29.134605
v 29.134605 79.458031 -29.134605
v 39.729015 79.458031 -29.134605
v -39.729015 79.458031 -39.729015
v -29.134605 79.458031 -39.729015
v 29.134605 79.458031 -39.729015
v 39.729015 79.458031 -39.729015
v -39.729015 68.863640 -39.729015
v -29.134605 68.863640 -39.729015
v 29.134605 68.863640 -39.729015
v 39.729015 68.863640 -39.729015
v -39.729015 10.594409 -39.729015
v -29.134605 10.594409 -39.729015
v 29.134605 10.594409 -39.729015
v 39.729015 10.594409 -39.729015
v -39.729015 0.000000 -39.729015
v -29.134605 0.000000 -39.729015
v 29.134605 0.000000 -39.729015
v 39.729015 0.000000 -39.729015
v -39.729015 0.000000 -29.134605
v -29.134605 0.000000 -29.134605
v 29.134605 0.000000 -29.134605
v 39.729015 0.000000 -29.134605
v -39.729015 0.000000 29.134605
v -29.134605 0.000000 29.134605
v 29.134605 0.000000 29.134605
v 39.729015 0.000000 29.134605
v 39.729015 10.594409 -29.134605
v 39.729015 10.594409 29.134605
v 39.729015 68.863625 -29.134605
v 39.729015 68.863625 29.134605
v -39.729015 10.594409 -29.134605
v -39.729015 10.594409 29.134605
v -39.729015 68.863625 -29.134605
v -39.729015 68.863625 29.134605
v -29.134605 10.594409 37.171852
v 29.134605 10.594409 37.171852
v 29.134605 68.863625 37.171852
v -29.134605 68.863625 37.171852
v -29.134605 76.900871 29.134605
v 29.134605 76.900871 29.134605
v 29.134605 76.900871 -29.134605
v -29.134605 76.900871 -29.134605
v -29.134605 68.863640 -37.171852
v 29.134605 68.863640 -37.171852
v 29.134605 10.594409 -37.171852
v -29.134605 10.594409 -37.171852
v -29.134605 2.557166 -29.134605
v 29.134605 2.557166 -29.134605
v 29.134605 2.557166 29.134605
v -29.134605 2.557166 29.134605
v 37.171852 10.594409 -29.134605
v 37.171852 10.594409 29.134605
v 37.171852 68.863625 -29.134605
v 37.171852 68.863625 29.134605
v -37.171852 10.594409 -29.134605
v -37.171852 10.594409 29.134605
v -37.171852 68.863625 29.134605
v -37.171852 68.863625 -29.134605
vt 0.346856 0.016368
vt 0.388046 0.016368
vt 0.388046 0.057558
vt 0.346856 0.057558
vt 0.614593 0.016368
vt 0.614593 0.057558
vt 0.655783 0.016368
vt 0.655783 0.057558
vt 0.388046 0.284104
vt 0.346856 0.284105
vt 0.395362 0.064874
vt 0.607277 0.064874
vt 0.607277 0.276789
vt 0.395362 0.276788
vt 0.655783 0.284105
vt 0.614593 0.284105
vt 0.388046 0.325295
vt 0.346856 0.325295
vt 0.614593 0.325295
vt 0.655783 0.325295
vt 0.016872 0.361109
vt 0.058063 0.361109
vt 0.058063 0.402299
vt 0.016872 0.402299
vt 0.284609 0.361109
vt 0.284609 0.402299
vt 0.325800 0.361109
vt 0.325800 0.402299
vt 0.058063 0.628846
vt 0.016872 0.628846
vt 0.065379 0.409615
vt 0.277293 0.409615
vt 0.277293 0.621529
vt 0.065379 0.621530
vt 0.325800 0.628846
vt 0.284609 0.628845
vt 0.058063 0.670036
vt 0.016872 0.670036
vt 0.284609 0.670036
vt 0.325800 0.670036
vt 0.679015 0.354760
vt 0.720205 0.354760
vt 0.720205 0.395950
vt 0.679015 0.395950
vt 0.946752 0.354760
vt 0.946752 0.395950
vt 0.987942 0.354760
vt 0.987942 0.395950
vt 0.720205 0.622497
vt 0.679015 0.622497
vt 0.727521 0.403266
vt 0.939436 0.403266
vt 0.939436 0.615181
vt 0.727521 0.615181
vt 0.987942 0.622497
vt 0.946752 0.622497
vt 0.720205 0.663687
vt 0.679015 0.663687
vt 0.946752 0.663687
vt 0.987942 0.663687
vt 0.350800 0.359859
vt 0.391990 0.359859
vt 0.391990 0.401049
vt 0.350800 0.401049
vt 0.618537 0.359859
vt 0.618537 0.401050
vt 0.659727 0.359859
vt 0.659727 0.401049
vt 0.391990 0.627596
vt 0.350800 0.627596
vt 0.399306 0.408365
vt 0.611221 0.408366
vt 0.611221 0.620280
vt 0.399306 0.620280
vt 0.659727 0.627596
vt 0.618537 0.627596
vt 0.391990 0.668786
vt 0.350800 0.668786
vt 0.618537 0.668786
vt 0.659727 0.668786
vt 0.293081 0.014793
vt 0.334271 0.014793
vt 0.334271 0.055984
vt 0.293081 0.055984
vt 0.066535 0.014793
vt 0.066535 0.055984
vt 0.025344 0.014793
vt 0.025344 0.055984
vt 0.334271 0.282530
vt 0.293081 0.282530
vt 0.073850 0.063300
vt 0.285765 0.063300
vt 0.285765 0.275214
vt 0.073851 0.275214
vt 0.066535 0.282530
vt 0.025344 0.282530
vt 0.334271 0.323721
vt 0.293081 0.323721
vt 0.066535 0.323721
vt 0.025344 0.323721
vt 0.675031 0.017012
vt 0.716221 0.017012
vt 0.716221 0.058202
vt 0.675031 0.058202
vt 0.942768 0.017012
vt 0.942767 0.058202
vt 0.983958 0.017012
vt 0.983958 0.058202
vt 0.716221 0.284749
vt 0.675031 0.284749
vt 0.723859 0.065840
vt 0.935129 0.065840
vt 0.935130 0.277111
vt 0.723859 0.277111
vt 0.983958 0.284749
vt 0.942768 0.284749
vt 0.716221 0.325939
vt 0.675031 0.325939
vt 0.942768 0.325939
vt 0.983958 0.325939
vn 0.000000 0.000000 1.000000
vn 0.000000 0.000000 1.000000
vn 0.000000 0.000000 1.000000
vn 0.000000 0.000000 1.000000
vn 0.000000 0.000000 1.000000
vn 0.000000 0.000000 1.000000
vn 0.000000 0.000000 1.000000
vn 0.000000 0.000000 1.000000
vn 0.000000 0.000000 1.000000
vn 0.000000 0.000000 1.000000
vn 0.000000 0.000000 1.000000
vn 0.000000 0.000000 1.000000
vn 0.000000 0.000000 1.000000
vn 0.000000 0.000000 1.000000
vn 0.000000 0.000000 1.000000
vn 0.000000 0.000000 1.000000
vn 0.000000 0.000000 1.000000
vn 0.000000 0.000000 1.000000
vn 0.000000 0.000000 1.000000
vn 0.000000 0.000000 1.000000
vn 0.000000 0.000000 1.000000
vn 0.000000 0.000000 1.000000
vn 0.000000 0.000000 1.000000
vn 0.000000 0.000000 1.000000
vn 0.000000 0.000000 1.000000
vn 0.000000 0.000000 1.000000
vn 0.000000 0.000000 1.000000
vn 0.000000 0.000000 1.000000
vn 0.000000 0.000000 1.000000
vn 0.000000 0.000000 1.000000
vn 0.000000 0.000000 1.000000
vn 0.000000 0.000000 1.000000
vn 0.000000 0.000000 1.000000
vn 0.000000 0.000000 1.000000
vn 0.000000 0.000000 1.000000
vn 0.000000 0.000000 1.000000
vn 0.000000 1.000000 0.000000
vn 0.000000 1.000000 0.000000
vn 0.000000 1.000000 0.000000
vn 0.000000 1.000000 0.000000
vn 0.000000 1.000000 0.000000
vn 0.000000 1.000000 0.000000
vn 0.000000 1.000000 0.000000
vn 0.000000 1.000000 0.000000
vn 0.000000 1.000000 0.000000
vn 0.000000 1.000000 0.000000
vn 0.000000 1.000000 0.000000
vn 0.000000 1.000000 0.000000
vn 0.000000 1.000000 0.000000
vn 0.000000 1.000000 0.000000
vn 0.000000 1.000000 0.000000
vn 0.000000 1.000000 0.000000
vn 0.000000 1.000000 0.000000
vn 0.000000 1.000000 0.000000
vn 0.000000 1.000000 0.000000
vn 0.000000 1.000000 0.000000
vn 0.000000 1.000000 0.000000
vn 0.000000 1.000000 0.000000
vn 0.000000 1.000000 0.000000
vn 0.000000 1.000000 0.000000
vn 0.000000 1.000000 0.000000
vn 0.000000 1.000000 0.000000
vn 0.000000 1.000000 0.000000
vn 0.000000 1.000000 0.000000
vn 0.000000 1.000000 0.000000
vn 0.000000 1.000000 0.000000
vn 0.000000 1.000000 0.000000
vn 0.000000 1.000000 0.000000
vn 0.000000 1.000000 0.000000
vn 0.000000 1.000000 0.000000
vn 0.000000 1.000000 0.000000
vn 0.000000 1.000000 0.000000
vn 0.000000 0.000000 -1.000000
vn 0.000000 0.000000 -1.000000
vn 0.000000 0.000000 -1.000000
vn 0.000000 0.000000 -1.000000
vn 0.000000 0.000000 -1.000000
vn 0.000000 0.000000 -1.000000
vn 0.000000 0.000000 -1.000000
vn 0.000000 0.000000 -1.000000
vn 0.000000 0.000000 -1.000000
vn 0.000000 0.000000 -1.000000
vn 0.000000 0.000000 -1.000000
vn 0.000000 0.000000 -1.000000
vn 0.000000 0.000000 -1.000000
vn 0.000000 0.000000 -1.000000
vn 0.000000 0.000000 -1.000000
vn 0.000000 0.000000 -1.000000
vn 0.000000 0.000000 -1.000000
vn 0.000000 0.000000 -1.000000
vn 0.000000 0.000000 -1.000000
vn 0.000000 0.000000 -1.000000
vn 0.000000 0.000000 -1.000000
vn 0.000000 0.000000 -1.000000
vn 0.000000 0.000000 -1.000000
vn 0.000000 0.000000 -1.000000
vn 0.000000 0.000000 -1.000000
vn 0.000000 0.000000 -1.000000
vn 0.000000 0.000000 -1.000000
vn 0.000000 0.000000 -1.000000
vn 0.000000 0.000000 -1.000000
vn 0.000000 0.000000 -1.000000
vn 0.000000 0.000000 -1.000000
vn 0.000000 0.000000 -1.000000
vn 0.000000 0.000000 -1.000000
vn 0.000000 0.000000 -1.000000
vn 0.000000 0.000000 -1.000000
vn 0.000000 0.000000 -1.000000
vn 0.000000 -1.000000 0.000000
vn 0.000000 -1.000000 0.000000
vn 0.000000 -1.000000 0.000000
vn 0.000000 -1.000000 0.000000
vn 0.000000 -1.000000 0.000000
vn 0.000000 -1.000000 0.000000
vn 0.000000 -1.000000 0.000000
vn 0.000000 -1.000000 0.000000
vn 0.000000 -1.000000 0.000000
vn 0.000000 -1.000000 0.000000
vn 0.000000 -1.000000 0.000000
vn 0.000000 -1.000000 0.000000
vn 0.000000 -1.000000 0.000000
vn 0.000000 -1.000000 0.000000
vn 0.000000 -1.000000 0.000000
vn 0.000000 -1.000000 0.000000
vn 0.000000 -1.000000 0.000000
vn 0.000000 -1.000000 0.000000
vn 0.000000 -1.000000 0.000000
vn 0.000000 -1.000000 0.000000
vn 0.000000 -1.000000 0.000000
vn 0.000000 -1.000000 0.000000
vn 0.000000 -1.000000 0.000000
vn 0.000000 -1.000000 0.000000
vn 0.000000 -1.000000 0.000000
vn 0.000000 -1.000000 0.000000
vn 0.000000 -1.000000 0.000000
vn 0.000000 -1.000000 0.000000
vn 0.000000 -1.000000 0.000000
vn 0.000000 -1.000000 0.000000
vn 0.000000 -1.000000 0.000000
vn 0.000000 -1.000000 0.000000
vn 0.000000 -1.000000 0.000000
vn 0.000000 -1.000000 0.000000
vn 0.000000 -1.000000 0.000000
vn 0.000000 -1.000000 0.000000
vn 1.000000 0.000000 0.000000
vn 1.000000 0.000000 0.000000
vn 1.000000 0.000000 0.000000
vn 1.000000 0.000000 0.000000
vn 1.000000 0.000000 0.000000
vn 1.000000 0.000000 0.000000
vn 1.000000 0.000000 0.000000
vn 1.000000 0.000000 0.000000
vn 1.000000 0.000000 0.000000
vn 1.000000 0.000000 0.000000
vn 1.000000 0.000000 0.000000
vn 1.000000 0.000000 0.000000
vn 1.000000 0.000000 0.000000
vn 1.000000 0.000000 0.000000
vn 1.000000 0.000000 0.000000
vn 1.000000 0.000000 0.000000
vn 1.000000 0.000000 0.000000
vn 1.000000 0.000000 0.000000
vn 1.000000 0.000000 0.000000
vn 1.000000 0.000000 0.000000
vn 1.000000 0.000000 0.000000
vn 1.000000 0.000000 0.000000
vn 1.000000 0.000000 0.000000
vn 1.000000 0.000000 0.000000
vn 1.000000 0.000000 0.000000
vn 1.000000 0.000000 0.000000
vn 1.000000 0.000000 0.000000
vn 1.000000 0.000000 0.000000
vn 1.000000 0.000000 0.000000
vn 1.000000 0.000000 0.000000
vn 1.000000 0.000000 0.000000
vn 1.000000 0.000000 0.000000
vn 1.000000 0.000000 0.000000
vn 1.000000 0.000000 0.000000
vn 1.000000 0.000000 0.000000
vn 1.000000 0.000000 0.000000
vn -1.000000 0.000000 0.000000
vn -1.000000 0.000000 0.000000
vn -1.000000 0.000000 0.000000
vn -1.000000 0.000000 0.000000
vn -1.000000 0.000000 0.000000
vn -1.000000 0.000000 0.000000
vn -1.000000 0.000000 0.000000
vn -1.000000 0.000000 0.000000
vn -1.000000 0.000000 0.000000
vn -1.000000 0.000000 0.000000
vn -1.000000 0.000000 0.000000
vn -1.000000 0.000000 0.000000
vn -1.000000 0.000000 0.000000
vn -1.000000 0.000000 0.000000
vn -1.000000 0.000000 0.000000
vn -1.000000 0.000000 0.000000
vn -1.000000 0.000000 0.000000
vn -1.000000 0.000000 0.000000
vn -1.000000 0.000000 0.000000
vn -1.000000 0.000000 0.000000
vn -1.000000 0.000000 0.000000
vn -1.000000 0.000000 0.000000
vn -1.000000 0.000000 0.000000
vn -1.000000 0.000000 0.000000
vn -1.000000 0.000000 0.000000
vn -1.000000 0.000000 0.000000
vn -1.000000 0.000000 0.000000
vn -1.000000 0.000000 0.000000
vn -1.000000 0.000000 0.000000
vn -1.000000 0.000000 0.000000
vn -1.000000 0.000000 0.000000
vn -1.000000 0.000000 0.000000
vn -1.000000 0.000000 0.000000
vn -1.000000 0.000000 0.000000
vn -1.000000 0.000000 0.000000
vn -1.000000 0.000000 0.000000
vn 0.000000 1.000000 0.000000
vn 0.000000 1.000000 0.000000
vn 0.000000 1.000000 0.000000
vn 0.000000 1.000000 0.000000
vn -1.000000 0.000000 0.000000
vn -1.000000 0.000000 0.000000
vn -1.000000 0.000000 0.000000
vn -1.000000 0.000000 0.000000
vn 0.000000 -1.000000 0.000000
vn 0.000000 -1.000000 0.000000
vn 0.000000 -1.000000 0.000000
vn 0.000000 -1.000000 0.000000
vn 1.000000 0.000000 0.000000
vn 1.000000 0.000000 0.000000
vn 1.000000 0.000000 0.000000
vn 1.000000 0.000000 0.000000
vn 0.000000 0.000000 -1.000000
vn 0.000000 0.000000 -1.000000
vn 0.000000 0.000000 -1.000000
vn 0.000000 0.000000 -1.000000
vn -1.000000 0.000000 0.000000
vn -1.000000 0.000000 0.000000
vn -1.000000 0.000000 0.000000
vn -1.000000 0.000000 0.000000
vn 0.000000 0.000000 1.000000
vn 0.000000 0.000000 1.000000
vn 0.000000 0.000000 1.000000
vn 0.000000 0.000000 1.000000
vn 1.000000 0.000000 0.000000
vn 1.000000 0.000000 0.000000
vn 1.000000 0.000000 0.000000
vn 1.000000 0.000000 0.000000
vn 0.000000 -1.000000 0.000000
vn 0.000000 -1.000000 0.000000
vn 0.000000 -1.000000 0.000000
vn 0.000000 -1.000000 0.000000
vn -1.000000 0.000000 0.000000
vn -1.000000 0.000000 0.000000
vn -1.000000 0.000000 0.000000
vn -1.000000 0.000000 0.000000
vn 0.000000 1.000000 0.000000
vn 0.000000 1.000000 0.000000
vn 0.000000 1.000000 0.000000
vn 0.000000 1.000000 0.000000
vn 1.000000 0.000000 0.000000
vn 1.000000 0.000000 0.000000
vn 1.000000 0.000000 0.000000
vn 1.000000 0.000000 0.000000
vn 0.000000 0.000000 1.000000
vn 0.000000 0.000000 1.000000
vn 0.000000 0.000000 1.000000
vn 0.000000 0.000000 1.000000
vn -1.000000 0.000000 0.000000
vn -1.000000 0.000000 0.000000
vn -1.000000 0.000000 0.000000
vn -1.000000 0.000000 0.000000
vn 0.000000 0.000000 -1.000000
vn 0.000000 0.000000 -1.000000
vn 0.000000 0.000000 -1.000000
vn 0.000000 0.000000 -1.000000
vn 1.000000 0.000000 0.000000
vn 1.000000 0.000000 0.000000
vn 1.000000 0.000000 0.000000
vn 1.000000 0.000000 0.000000
vn 0.000000 1.000000 0.000000
vn 0.000000 1.000000 0.000000
vn 0.000000 1.000000 0.000000
vn 0.000000 1.000000 0.000000
vn 0.000000 0.000000 1.000000
vn 0.000000 0.000000 1.000000
vn 0.000000 0.000000 1.000000
vn 0.000000 0.000000 1.000000
vn 0.000000 -1.000000 0.000000
vn 0.000000 -1.000000 0.000000
vn 0.000000 -1.000000 0.000000
vn 0.000000 -1.000000 0.000000
vn 0.000000 0.000000 -1.000000
vn 0.000000 0.000000 -1.000000
vn 0.000000 0.000000 -1.000000
vn 0.000000 0.000000 -1.000000
vn 0.000000 1.000000 0.000000
vn 0.000000 1.000000 0.000000
vn 0.000000 1.000000 0.000000
vn 0.000000 1.000000 0.000000
vn 0.000000 0.000000 -1.000000
vn 0.000000 0.000000 -1.000000
vn 0.000000 0.000000 -1.000000
vn 0.000000 0.000000 -1.000000
vn 0.000000 -1.000000 0.000000
vn 0.000000 -1.000000 0.000000
vn 0.000000 -1.000000 0.000000
vn 0.000000 -1.000000 0.000000
vn 0.000000 0.000000 1.000000
vn 0.000000 0.000000 1.000000
vn 0.000000 0.000000 1.000000
vn 0.000000 0.000000 1.000000
s off
f 1/1/1 2/2/2 6/3/3 5/4/4
f 2/2/5 3/5/6 7/6/7 6/3/8
f 3/5/9 4/7/10 8/8/11 7/6/12
f 5/4/13 6/3/14 10/9/15 9/10/16
f 57/11/17 58/12/18 59/13/19 60/14/20
f 7/6/21 8/8/22 12/15/23 11/16/24
f 9/10/25 10/9/26 14/17/27 13/18/28
f 10/9/29 11/16/30 15/19/31 14/17/32
f 11/16/33 12/15/34 16/20/35 15/19/36
f 13/21/37 14/22/38 18/23/39 17/24/40
f 14/22/41 15/25/42 19/26/43 18/23/44
f 15/25/45 16/27/46 20/28/47 19/26/48
f 17/24/49 18/23/50 22/29/51 21/30/52
f 61/31/53 62/32/54 63/33/55 64/34/56
f 19/26/57 20/28/58 24/35/59 23/36/60
f 21/30/61 22/29/62 26/37/63 25/38/64
f 22/29/65 23/36/66 27/39/67 26/37/68
f 23/36/69 24/35/70 28/40/71 27/39/72
f 25/41/73 26/42/74 30/43/75 29/44/76
f 26/42/77 27/45/78 31/46/79 30/43/80
f 27/45/81 28/47/82 32/48/83 31/46/84
f 29/44/85 30/43/86 34/49/87 33/50/88
f 65/51/89 66/52/90 67/53/91 68/54/92
f 31/46/93 32/48/94 36/55/95 35/56/96
f 33/50/97 34/49/98 38/57/99 37/58/100
f 34/49/101 35/56/102 39/59/103 38/57/104
f 35/56/105 36/55/106 40/60/107 39/59/108
f 37/61/109 38/62/110 42/63/111 41/64/112
f 38/62/113 39/65/114 43/66/115 42/63/116
f 39/65/117 40/67/118 44/68/119 43/66/120
f 41/64/121 42/63/122 46/69/123 45/70/124
f 69/71/125 70/72/126 71/73/127 72/74/128
f 43/66/129 44/68/130 48/75/131 47/76/132
f 45/70/133 46/69/134 2/77/135 1/78/136
f 46/69/137 47/76/138 3/79/139 2/77/140
f 47/76/141 48/75/142 4/80/143 3/79/144
f 44/81/145 40/82/146 36/83/147 49/84/148
f 48/85/149 44/81/150 49/84/151 50/86/152
f 4/87/153 48/85/154 50/86/155 8/88/156
f 49/84/157 36/83/158 32/89/159 51/90/160
f 74/91/161 73/92/162 75/93/163 76/94/164
f 8/88/165 50/86/166 52/95/167 12/96/168
f 51/90/169 32/89/170 28/97/171 24/98/172
f 52/95/173 51/90/174 24/98/175 20/99/176
f 12/96/177 52/95/178 20/99/179 16/100/180
f 37/101/181 41/102/182 53/103/183 33/104/184
f 41/102/185 45/105/186 54/106/187 53/103/188
f 45/105/189 1/107/190 5/108/191 54/106/192
f 33/104/193 53/103/194 55/109/195 29/110/196
f 77/111/197 78/112/198 79/113/199 80/114/200
f 54/106/201 5/108/202 9/115/203 56/116/204
f 29/110/205 55/109/206 21/117/207 25/118/208
f 55/109/209 56/116/210 17/119/211 21/117/212
f 56/116/213 9/115/214 13/120/215 17/119/216
f 6/3/217 7/6/218 58/12/219 57/11/220
f 7/6/221 11/16/222 59/13/223 58/12/224
f 11/16/225 10/9/226 60/14/227 59/13/228
f 10/9/229 6/3/230 57/11/231 60/14/232
f 18/23/233 19/26/234 62/32/235 61/31/236
f 19/26/237 23/36/238 63/33/239 62/32/240
f 23/36/241 22/29/242 64/34/243 63/33/244
f 22/29/245 18/23/246 61/31/247 64/34/248
f 30/43/249 31/46/250 66/52/251 65/51/252
f 31/46/253 35/56/254 67/53/255 66/52/256
f 35/56/257 34/49/258 68/54/259 67/53/260
f 34/49/261 30/43/262 65/51/263 68/54/264
f 42/63/265 43/66/266 70/72/267 69/71/268
f 43/66/269 47/76/270 71/73/271 70/72/272
f 47/76/273 46/69/274 72/74/275 71/73/276
f 46/69/277 42/63/278 69/71/279 72/74/280
f 50/86/281 49/84/282 73/92/283 74/91/284
f 49/84/285 51/90/286 75/93/287 73/92/288
f 51/90/289 52/95/290 76/94/291 75/93/292
f 52/95/293 50/86/294 74/91/295 76/94/296
f 53/103/297 54/106/298 78/112/299 77/111/300
f 54/106/301 56/116/302 79/113/303 78/112/304
f 56/116/305 55/109/306 80/114/307 79/113/308
f 55/109/309 53/103/310 77/111/311 80/114/312
