# This file uses centimeters as units for non-parametric coordinates.

mtllib StoneBrickLong.mtl
g default
v -7.084585 -0.042264 0.705066
v 7.334779 -0.013509 0.672722
v -7.195882 1.344278 0.800119
v 7.366205 1.287705 0.735321
v -7.170174 1.386249 -0.703757
v 7.352080 1.328556 -0.799902
v -7.208135 -0.118502 -0.518060
v 7.359836 0.021497 -0.588958
v 7.354570 1.526537 0.575656
v -7.129951 1.536483 0.646215
v 7.360695 1.464601 -0.680314
v -7.151721 1.617343 -0.477451
v 7.385739 0.179910 -0.748841
v -7.185167 0.155123 -0.806894
v 7.323020 0.100595 0.769365
v -7.222534 0.142278 0.811817
v -7.454232 0.108460 0.721529
v -7.397519 1.462043 0.653487
v -7.425920 1.447021 -0.612114
v -7.475859 0.069309 -0.619755
v 7.474057 0.185201 0.671126
v 7.499068 0.118914 -0.614585
v 7.461418 1.296734 -0.671087
v 7.433589 1.328514 0.599466
vt 0.889006 0.784052
vt 0.226688 0.080967
vt 0.280549 0.026737
vt 0.949072 0.728391
vt 0.877303 0.793487
vt 0.220417 0.086944
vt 0.278300 0.018478
vt 0.217964 0.076987
vt 0.289376 0.020732
vt 0.963322 0.716967
vt 0.896964 0.799932
vt 0.966525 0.738482
vt 0.697781 0.969004
vt 0.028595 0.268237
vt 0.087670 0.214801
vt 0.752451 0.914380
vt 0.020994 0.262680
vt 0.083973 0.204621
vt 0.095933 0.207927
vt 0.762250 0.909357
vt 0.769831 0.923395
vt 0.705102 0.986589
vt 0.822613 0.843877
vt 0.162644 0.147278
vt 0.153353 0.153345
vt 0.892950 0.925797
vt 0.818494 0.853884
vt 0.152718 0.144071
vt 0.159904 0.022113
vt 0.834370 0.857300
vt 0.103251 0.086322
vt 0.959780 0.866642
vn -0.004539 -0.988434 0.151582
vn 0.015111 -0.992859 0.118336
vn 0.008582 -0.060086 0.998156
vn -0.005523 -0.032235 0.999465
vn -0.005395 0.109348 0.993989
vn 0.012200 0.125021 0.992079
vn 0.018161 0.985867 0.166545
vn -0.001550 0.982901 0.184128
vn -0.011847 0.138771 -0.990254
vn 0.004987 0.143095 -0.989696
vn 0.009114 -0.131715 -0.991246
vn -0.010394 -0.143031 -0.989664
vn -0.007739 -0.991328 -0.131185
vn 0.015532 -0.989574 -0.143185
vn 0.016468 0.991937 -0.125660
vn -0.004782 0.991792 -0.127773
vn -0.977394 -0.149252 0.149751
vn -0.973322 0.194359 0.121943
vn -0.977109 0.162271 -0.137571
vn -0.983429 -0.129769 -0.126597
vn 0.992015 -0.064068 0.108634
vn 0.996910 -0.067824 -0.039620
vn 0.993836 0.088872 -0.066265
vn 0.992968 0.091797 0.074747
s 1
g pCube1
usemtl lambert2SG
f 1/16/1 2/15/2 15/19/3 16/20/4
f 3/27/5 4/25/6 9/24/7 10/23/8
f 5/1/9 6/2/10 13/3/11 14/4/12
f 7/13/13 8/14/14 2/15/2 1/16/1
f 10/23/8 9/24/7 11/6/15 12/5/16
f 12/5/16 11/6/15 6/2/10 5/1/9
f 14/4/12 13/3/11 8/9/14 7/10/13
f 16/20/4 15/19/3 4/25/6 3/27/5
f 17/26/17 18/30/18 19/11/19 20/32/20
f 12/5/16 19/11/19 18/30/18 10/23/8
f 19/11/19 5/1/9 14/4/12 20/12/20
f 1/16/1 17/21/17 20/22/20 7/13/13
f 3/27/5 18/30/18 17/21/17 16/20/4
f 21/31/21 22/29/22 23/8/23 24/28/24
f 23/8/23 11/6/15 9/24/7 24/28/24
f 24/28/24 4/25/6 15/19/3 21/18/21
f 22/7/22 13/3/11 6/2/10 23/8/23
f 8/14/14 22/17/22 21/18/21 2/15/2
f 9/24/7 4/25/6 24/28/24
f 6/2/10 11/6/15 23/8/23
f 8/9/14 13/3/11 22/7/22
f 15/19/3 2/15/2 21/18/21
f 10/23/8 18/30/18 3/27/5
f 5/1/9 19/11/19 12/5/16
f 7/10/13 20/12/20 14/4/12
f 16/20/4 17/21/17 1/16/1
